<?xml version="1.0" standalone="no"?>
<!DOCTYPE svg PUBLIC "-//W3C//DTD SVG 20010904//EN"
 "http://www.w3.org/TR/2001/REC-SVG-20010904/DTD/svg10.dtd">
<svg version="1.0" xmlns="http://www.w3.org/2000/svg"
 width="200.000000pt" height="200.000000pt" viewBox="0 0 200.000000 200.000000"
 preserveAspectRatio="xMidYMid meet">

<g transform="translate(0.000000,200.000000) scale(0.100000,-0.100000)"
fill="#000000" stroke="none">
<path d="M893 1686 c-79 -20 -153 -60 -210 -115 -103 -99 -146 -199 -146 -341
0 -197 93 -342 273 -429 73 -35 78 -36 195 -36 118 0 122 1 198 37 225 107
334 374 243 592 -15 37 -17 38 -34 22 -10 -9 -24 -16 -31 -16 -9 0 -11 -8 -7
-27 4 -16 12 -56 18 -90 30 -158 -64 -333 -219 -410 -53 -26 -67 -28 -168 -28
-101 0 -115 2 -168 28 -157 77 -248 249 -220 413 15 87 52 159 110 217 46 46
150 107 182 107 9 0 28 14 43 30 16 18 36 30 50 30 15 0 36 -12 51 -30 15 -16
35 -30 45 -30 30 0 118 -47 160 -84 38 -35 43 -36 86 -29 l46 8 -42 43 c-94
98 -194 143 -323 148 -45 2 -103 -2 -132 -10z"/>
<path d="M958 1619 c-13 -17 -57 -53 -98 -80 -42 -26 -85 -59 -97 -71 -65 -70
-94 -354 -46 -444 27 -50 72 -90 133 -117 99 -44 315 -29 295 20 -4 10 -9 24
-12 32 -5 10 1 10 24 -2 30 -16 30 -15 91 36 39 32 62 59 62 72 0 34 -110 157
-171 190 -75 40 -167 41 -253 2 -45 -21 -57 -23 -52 -11 3 9 6 19 6 23 0 4 25
36 55 71 32 37 55 73 55 86 0 31 45 54 103 54 24 0 88 -15 143 -35 54 -19 115
-35 135 -35 45 0 85 29 75 55 -6 15 -14 17 -66 12 -50 -6 -74 -2 -136 19 -94
33 -215 32 -260 -1 -42 -32 -131 -187 -145 -253 -10 -51 -41 -101 -61 -102 -5
0 -8 24 -8 54 0 38 7 67 26 101 19 36 24 57 20 81 -6 28 -2 36 42 75 27 24 77
60 111 79 93 52 113 69 109 94 -5 36 -52 34 -80 -5z m180 -410 c55 -27 71 -58
49 -93 -15 -23 -69 -46 -107 -46 -21 0 -116 46 -125 60 -14 22 78 100 119 100
11 0 39 -10 64 -21z"/>
<path d="M1056 1158 c-13 -19 -14 -25 -2 -43 26 -40 86 -27 86 19 0 47 -57 63
-84 24z m62 -10 c-6 -18 -28 -21 -28 -4 0 9 7 16 16 16 9 0 14 -5 12 -12z"/>
<path d="M210 560 c0 -82 2 -90 19 -90 15 0 21 8 23 32 2 22 9 34 21 36 14 3
17 -4 17 -32 0 -29 4 -36 20 -36 19 0 20 7 20 90 0 83 -1 90 -20 90 -17 0 -20
-7 -20 -40 0 -33 -3 -40 -20 -40 -17 0 -20 7 -20 40 0 33 -3 40 -20 40 -19 0
-20 -7 -20 -90z"/>
<path d="M360 631 c-5 -11 -10 -43 -10 -71 0 -69 13 -90 53 -90 18 0 38 5 45
12 16 16 16 140 0 156 -20 20 -76 15 -88 -7z m60 -72 c0 -44 -3 -60 -12 -56
-12 3 -20 91 -11 110 13 24 23 -1 23 -54z"/>
<path d="M480 561 c0 -84 1 -91 20 -91 15 0 20 7 20 25 0 14 5 25 10 25 6 0
10 -11 10 -25 0 -18 5 -25 20 -25 20 0 21 5 18 88 l-3 87 -47 3 -48 3 0 -90z
m60 29 c0 -16 -4 -30 -10 -30 -5 0 -10 14 -10 30 0 17 5 30 10 30 6 0 10 -13
10 -30z"/>
<path d="M600 560 c0 -82 2 -90 19 -90 15 0 21 8 24 33 l3 32 13 -33 c17 -42
40 -39 57 8 l12 35 1 -37 c1 -31 5 -38 21 -38 19 0 20 7 20 91 0 88 -1 90 -22
87 -16 -2 -27 -15 -38 -45 -8 -23 -18 -45 -22 -48 -4 -4 -15 16 -25 44 -14 41
-22 51 -40 51 -22 0 -23 -3 -23 -90z"/>
<path d="M780 560 c0 -83 1 -90 20 -90 19 0 20 7 20 90 0 83 -1 90 -20 90 -19
0 -20 -7 -20 -90z"/>
<path d="M850 631 c-5 -11 -10 -43 -10 -71 0 -67 13 -90 50 -90 49 0 60 9 60
51 0 35 -2 39 -26 39 -23 0 -25 -3 -19 -30 5 -24 3 -30 -10 -30 -13 0 -15 10
-13 57 2 34 8 58 16 61 6 2 12 -3 12 -12 0 -9 8 -16 20 -16 23 0 27 29 8 48
-20 20 -76 15 -88 -7z"/>
<path d="M1006 638 c-2 -7 -9 -40 -16 -73 -6 -33 -14 -68 -16 -77 -4 -13 0
-18 15 -18 12 0 21 5 21 10 0 6 9 10 20 10 11 0 20 -4 20 -10 0 -5 8 -10 19
-10 18 0 18 3 5 68 -23 112 -23 112 -45 112 -11 0 -21 -6 -23 -12z m34 -109
c0 -5 -4 -9 -10 -9 -5 0 -10 7 -10 16 0 8 5 12 10 9 6 -3 10 -10 10 -16z"/>
<path d="M1190 561 c0 -84 1 -91 20 -91 17 0 20 7 20 43 l0 42 20 -42 c13 -30
25 -43 40 -43 19 0 20 6 20 90 0 83 -1 90 -20 90 -17 0 -20 -7 -21 -47 l0 -48
-18 45 c-13 31 -25 46 -40 48 -20 3 -21 0 -21 -87z"/>
<path d="M1330 560 l0 -90 40 0 c42 0 55 18 20 27 -25 7 -26 31 -2 49 16 13
16 15 0 28 -24 18 -23 42 2 49 35 9 22 27 -20 27 l-40 0 0 -90z"/>
<path d="M1442 641 c-9 -5 -12 -30 -10 -87 l3 -79 40 -3 c45 -4 65 14 65 60 0
24 -4 28 -30 28 -32 0 -37 -9 -19 -27 12 -12 4 -33 -12 -33 -5 0 -9 27 -9 60
0 57 13 79 26 45 7 -17 44 -21 44 -4 0 6 -5 19 -10 30 -11 20 -63 26 -88 10z"/>
<path d="M1560 560 c0 -83 1 -90 20 -90 15 0 20 7 20 25 0 14 5 25 10 25 6 0
10 -11 10 -25 0 -20 5 -25 24 -25 22 0 23 3 23 73 1 95 -6 107 -62 107 l-45 0
0 -90z m60 30 c0 -16 -4 -30 -10 -30 -5 0 -10 14 -10 30 0 17 5 30 10 30 6 0
10 -13 10 -30z"/>
<path d="M1703 560 c-21 -96 -18 -105 28 -77 17 10 23 10 26 0 3 -7 13 -13 24
-13 15 0 18 5 14 23 -3 12 -11 51 -18 87 -10 53 -17 66 -33 68 -18 3 -23 -8
-41 -88z m43 -37 c-10 -10 -19 5 -10 18 6 11 8 11 12 0 2 -7 1 -15 -2 -18z"/>
<path d="M180 290 l0 -110 823 2 822 3 3 108 3 107 -826 0 -825 0 0 -110z
m132 43 c37 -33 8 -83 -49 -83 l-33 0 0 50 c0 49 0 50 32 50 17 0 40 -7 50
-17z m75 -60 c-2 -16 -4 -3 -4 27 0 30 2 43 4 28 2 -16 2 -40 0 -55z m101 70
c-37 -6 -35 -22 2 -36 22 -9 30 -17 28 -32 -3 -22 -43 -34 -59 -18 -6 6 2 8
21 5 41 -6 41 22 0 37 -46 16 -39 52 9 50 l26 -2 -27 -4z m140 0 c-14 -3 -18
-15 -18 -50 0 -54 -10 -53 -12 1 -1 22 -8 41 -17 46 -12 7 -5 9 24 9 22 -1 32
-3 23 -6z m139 -9 c3 -9 1 -24 -4 -33 -8 -12 -8 -23 0 -37 10 -18 9 -18 -10
-1 -11 9 -27 17 -36 17 -8 0 -18 -8 -20 -17 -3 -10 -5 6 -6 35 l-1 52 35 0
c24 0 38 -5 42 -16z m70 -61 c-2 -16 -4 -3 -4 27 0 30 2 43 4 28 2 -16 2 -40
0 -55z m144 70 c0 -5 1 -26 2 -48 l2 -40 -42 -3 -43 -3 0 50 0 51 40 0 c22 0
40 -3 41 -7z m95 -80 c22 -8 43 15 47 55 l4 37 1 -40 c1 -23 -3 -46 -10 -53
-14 -14 -54 -16 -63 -2 -10 16 -15 73 -7 84 4 6 8 -8 10 -32 2 -26 9 -45 18
-49z m121 10 c-2 -16 -4 -3 -4 27 0 30 2 43 4 28 2 -16 2 -40 0 -55z m151 65
c7 -7 12 -24 12 -38 0 -35 -17 -50 -57 -50 -34 0 -35 2 -35 45 0 52 1 55 35
55 18 0 38 -5 45 -12z m156 -4 c21 -20 20 -43 -1 -66 -32 -36 -93 -13 -93 36
0 12 5 27 12 34 17 17 64 15 82 -4z m142 -37 c1 -43 -1 -46 -16 -32 -21 19
-40 19 -40 0 0 -8 -4 -15 -10 -15 -5 0 -10 23 -10 51 l0 50 38 -3 37 -3 1 -48z
m117 26 c8 -16 18 -39 21 -53 6 -21 5 -22 -4 -7 -13 21 -58 23 -66 2 -4 -8
-10 -15 -14 -15 -11 0 32 99 42 100 4 0 14 -12 21 -27z"/>
<path d="M240 300 c0 -35 3 -40 23 -40 27 0 42 10 49 30 9 26 -11 50 -42 50
-28 0 -30 -2 -30 -40z"/>
<path d="M702 318 c4 -31 53 -34 53 -3 0 15 -8 21 -28 23 -25 3 -28 0 -25 -20z"/>
<path d="M920 325 c0 -9 9 -15 25 -15 16 0 25 6 25 15 0 9 -9 15 -25 15 -16 0
-25 -6 -25 -15z"/>
<path d="M920 280 c0 -15 7 -20 24 -20 29 0 44 19 25 31 -25 16 -49 10 -49
-11z"/>
<path d="M1280 301 c0 -36 3 -41 24 -41 30 0 49 22 44 52 -2 18 -10 24 -35 26
-32 3 -33 2 -33 -37z"/>
<path d="M1432 328 c-27 -27 -6 -68 35 -68 28 0 46 36 31 63 -10 20 -48 23
-66 5z"/>
<path d="M1590 314 c0 -21 4 -25 23 -22 14 2 23 11 25 26 3 18 -1 22 -22 22
-21 0 -26 -5 -26 -26z"/>
<path d="M1731 311 c-10 -18 -9 -21 9 -21 22 0 25 7 11 29 -7 11 -11 9 -20 -8z"/>
</g>
</svg>
